<svg width="200" height="240" viewBox="0 0 200 240" fill="none" xmlns="http://www.w3.org/2000/svg">
  <!-- Tree Symbol -->
  <g transform="translate(100, 80)">
    <!-- Tree trunk and base -->
    <path d="M-15 50 Q-15 55 -10 60 L10 60 Q15 55 15 50 L10 -20 Q5 -25 0 -25 Q-5 -25 -10 -20 Z" fill="#B38629"/>
    
    <!-- Tree base curve -->
    <path d="M-40 50 Q0 65 40 50" stroke="#1E372F" stroke-width="8" fill="none"/>
    
    <!-- Leaves -->
    <ellipse cx="-25" cy="-35" rx="18" ry="35" fill="#1E372F" transform="rotate(-20)"/>
    <ellipse cx="25" cy="-35" rx="18" ry="35" fill="#1E372F" transform="rotate(20)"/>
    <ellipse cx="-20" cy="-55" rx="16" ry="30" fill="#1E372F" transform="rotate(-35)"/>
    <ellipse cx="20" cy="-55" rx="16" ry="30" fill="#1E372F" transform="rotate(35)"/>
    
    <!-- Leaf details/veins -->
    <path d="M-25 -50 Q-25 -35 -25 -20" stroke="#B38629" stroke-width="2"/>
    <path d="M25 -50 Q25 -35 25 -20" stroke="#B38629" stroke-width="2"/>
    <path d="M-20 -70 Q-20 -55 -20 -40" stroke="#B38629" stroke-width="2"/>
    <path d="M20 -70 Q20 -55 20 -40" stroke="#B38629" stroke-width="2"/>
  </g>
  
  <!-- Text -->
  <text x="100" y="160" text-anchor="middle" font-family="Arial, sans-serif" font-size="36" font-weight="bold" fill="#1E372F">TAWI</text>
  <text x="100" y="200" text-anchor="middle" font-family="Arial, sans-serif" font-size="28" font-weight="bold" fill="#1E372F">GROUP</text>
</svg>